<svg width="18" height="18" viewBox="0 0 18 18" fill="none" xmlns="http://www.w3.org/2000/svg">
<path d="M2.8125 4.5C2.8125 4.05245 2.99029 3.62323 3.30676 3.30676C3.62323 2.99029 4.05245 2.8125 4.5 2.8125H6.1875C6.63505 2.8125 7.06427 2.99029 7.38074 3.30676C7.69721 3.62323 7.875 4.05245 7.875 4.5V6.1875C7.875 6.63505 7.69721 7.06427 7.38074 7.38074C7.06427 7.69721 6.63505 7.875 6.1875 7.875H4.5C4.05245 7.875 3.62323 7.69721 3.30676 7.38074C2.99029 7.06427 2.8125 6.63505 2.8125 6.1875V4.5ZM2.8125 11.8125C2.8125 11.3649 2.99029 10.9357 3.30676 10.6193C3.62323 10.3028 4.05245 10.125 4.5 10.125H6.1875C6.63505 10.125 7.06427 10.3028 7.38074 10.6193C7.69721 10.9357 7.875 11.3649 7.875 11.8125V13.5C7.875 13.9476 7.69721 14.3768 7.38074 14.6932C7.06427 15.0097 6.63505 15.1875 6.1875 15.1875H4.5C4.05245 15.1875 3.62323 15.0097 3.30676 14.6932C2.99029 14.3768 2.8125 13.9476 2.8125 13.5V11.8125ZM10.125 4.5C10.125 4.05245 10.3028 3.62323 10.6193 3.30676C10.9357 2.99029 11.3649 2.8125 11.8125 2.8125H13.5C13.9476 2.8125 14.3768 2.99029 14.6932 3.30676C15.0097 3.62323 15.1875 4.05245 15.1875 4.5V6.1875C15.1875 6.63505 15.0097 7.06427 14.6932 7.38074C14.3768 7.69721 13.9476 7.875 13.5 7.875H11.8125C11.3649 7.875 10.9357 7.69721 10.6193 7.38074C10.3028 7.06427 10.125 6.63505 10.125 6.1875V4.5ZM10.125 11.8125C10.125 11.3649 10.3028 10.9357 10.6193 10.6193C10.9357 10.3028 11.3649 10.125 11.8125 10.125H13.5C13.9476 10.125 14.3768 10.3028 14.6932 10.6193C15.0097 10.9357 15.1875 11.3649 15.1875 11.8125V13.5C15.1875 13.9476 15.0097 14.3768 14.6932 14.6932C14.3768 15.0097 13.9476 15.1875 13.5 15.1875H11.8125C11.3649 15.1875 10.9357 15.0097 10.6193 14.6932C10.3028 14.3768 10.125 13.9476 10.125 13.5V11.8125Z" stroke="#737373" stroke-width="1.125" stroke-linecap="round" stroke-linejoin="round"/>
</svg>
