<svg width="18" height="18" viewBox="0 0 18 18" fill="none" xmlns="http://www.w3.org/2000/svg">
<path fill-rule="evenodd" clip-rule="evenodd" d="M2.25 3.9375C2.25 3.78832 2.30926 3.64524 2.41475 3.53975C2.52024 3.43426 2.66332 3.375 2.8125 3.375H15.1875C15.3367 3.375 15.4798 3.43426 15.5852 3.53975C15.6907 3.64524 15.75 3.78832 15.75 3.9375C15.75 4.08668 15.6907 4.22976 15.5852 4.33525C15.4798 4.44074 15.3367 4.5 15.1875 4.5H2.8125C2.66332 4.5 2.52024 4.44074 2.41475 4.33525C2.30926 4.22976 2.25 4.08668 2.25 3.9375ZM2.25 7.3125C2.25 7.16332 2.30926 7.02024 2.41475 6.91475C2.52024 6.80926 2.66332 6.75 2.8125 6.75H15.1875C15.3367 6.75 15.4798 6.80926 15.5852 6.91475C15.6907 7.02024 15.75 7.16332 15.75 7.3125C15.75 7.46168 15.6907 7.60476 15.5852 7.71025C15.4798 7.81574 15.3367 7.875 15.1875 7.875H2.8125C2.66332 7.875 2.52024 7.81574 2.41475 7.71025C2.30926 7.60476 2.25 7.46168 2.25 7.3125ZM2.25 10.6875C2.25 10.5383 2.30926 10.3952 2.41475 10.2898C2.52024 10.1843 2.66332 10.125 2.8125 10.125H15.1875C15.3367 10.125 15.4798 10.1843 15.5852 10.2898C15.6907 10.3952 15.75 10.5383 15.75 10.6875C15.75 10.8367 15.6907 10.9798 15.5852 11.0852C15.4798 11.1907 15.3367 11.25 15.1875 11.25H2.8125C2.66332 11.25 2.52024 11.1907 2.41475 11.0852C2.30926 10.9798 2.25 10.8367 2.25 10.6875ZM2.25 14.0625C2.25 13.9133 2.30926 13.7702 2.41475 13.6648C2.52024 13.5593 2.66332 13.5 2.8125 13.5H15.1875C15.3367 13.5 15.4798 13.5593 15.5852 13.6648C15.6907 13.7702 15.75 13.9133 15.75 14.0625C15.75 14.2117 15.6907 14.3548 15.5852 14.4602C15.4798 14.5657 15.3367 14.625 15.1875 14.625H2.8125C2.66332 14.625 2.52024 14.5657 2.41475 14.4602C2.30926 14.3548 2.25 14.2117 2.25 14.0625Z" fill="#737373"/>
</svg>
