<svg width="66" height="73" viewBox="0 0 66 73" fill="none" xmlns="http://www.w3.org/2000/svg">
<path fill-rule="evenodd" clip-rule="evenodd" d="M33.0632 23.1152L52.8601 10.011L49.504 4.23084L29.707 17.335L33.0632 23.1152ZM19.6789 38.8634C25.8516 39.4644 31.3455 34.9759 31.9498 28.8381C32.5542 22.7003 28.0401 17.2375 21.8674 16.6366C15.6947 16.0356 10.2008 20.5241 9.59649 26.6619C8.99213 32.7997 13.5062 38.2625 19.6789 38.8634ZM44.0604 68.3697C50.2331 68.9706 55.727 64.4821 56.3314 58.3443C56.9357 52.2066 52.4217 46.7437 46.249 46.1428C40.0763 45.5419 34.5824 50.0304 33.978 56.1681C33.3737 62.3059 37.8877 67.7687 44.0604 68.3697ZM34.5188 49.6416L26.2228 39.6018L31.4091 35.3646L39.7051 45.4044L34.5188 49.6416Z" fill="#C1FF72"/>
</svg>
