<svg width="30" height="28" viewBox="0 0 30 28" fill="none" xmlns="http://www.w3.org/2000/svg">
<g id="Layer_1" clip-path="url(#clip0_2113_5)">
<path id="Vector" d="M26.7094 27.5286C26.6446 27.507 26.5814 27.4807 26.5155 27.4654C26.0957 27.3747 25.71 27.1663 25.4027 26.8643C24.6553 26.1168 23.9 25.3761 23.1714 24.6108C22.6565 24.0696 22.3993 23.4153 22.5964 22.6631C22.6759 22.3969 22.8114 22.1511 22.9936 21.9424C23.2733 21.6087 23.6005 21.3149 23.9099 21.0065C24.0965 20.8212 24.3145 20.8027 24.4587 20.9538C24.603 21.1049 24.5894 21.2986 24.4065 21.4908C24.1666 21.7445 23.9162 21.9887 23.67 22.2367C23.095 22.8157 23.0428 23.45 23.5958 24.0433C24.3584 24.8608 25.1565 25.6451 25.9589 26.4242C26.0878 26.5499 26.2404 26.6483 26.4078 26.7136C26.5751 26.7789 26.7538 26.8097 26.9331 26.8043C27.0638 26.8058 27.1934 26.7809 27.3142 26.731C27.4351 26.681 27.5447 26.6072 27.6367 26.5137C27.9148 26.2358 28.1876 25.9526 28.4688 25.6778C28.8404 25.3151 28.899 24.8808 28.7098 24.4249C28.6052 24.1849 28.4596 23.9652 28.2796 23.7759C27.8264 23.2911 27.3476 22.8283 26.8814 22.3577C26.6854 22.1593 26.6613 21.9308 26.8155 21.7845C26.9697 21.6381 27.1731 21.6671 27.3685 21.8613C27.8755 22.367 28.3808 22.8759 28.8843 23.3879C29.2502 23.7632 29.407 24.2444 29.5299 24.7408V25.0566C29.3981 25.3661 29.3365 25.7409 29.1216 25.972C28.5435 26.5932 28.0465 27.3465 27.1255 27.5307L26.7094 27.5286Z" fill="#C1FF72"/>
<path id="Vector_2" d="M29.532 3.26137C29.5023 3.36928 29.4908 3.4872 29.4395 3.58353C29.2535 3.9357 29.1134 4.33681 28.8494 4.61897C28.0804 5.44121 27.2817 6.2352 26.4534 7.00094C25.7964 7.60736 24.7845 7.6821 24.141 7.17939C23.7182 6.84933 23.357 6.43506 22.9859 6.04131C22.9534 6.01067 22.9277 5.97341 22.9106 5.93202C22.8935 5.89062 22.8854 5.84603 22.8867 5.80121C22.888 5.7564 22.8988 5.71238 22.9184 5.67209C22.9379 5.6318 22.9657 5.59616 23 5.56755C23.1568 5.42489 23.3392 5.43595 23.4919 5.58387C23.7741 5.8576 24.0642 6.12553 24.3214 6.4219C24.7432 6.90777 25.3547 6.86565 25.7948 6.61298C25.9332 6.53843 26.0612 6.44567 26.1753 6.33714C26.9489 5.5549 27.7272 4.77636 28.4809 3.97517C28.8766 3.55405 29.0135 2.74443 28.4009 2.24172C28.172 2.05219 27.9619 1.84062 27.7737 1.61003C27.2061 0.920445 26.4362 1.12049 25.9386 1.59056C25.4122 2.08854 24.9125 2.61547 24.3998 3.12819C24.2466 3.28137 24.0804 3.38245 23.8734 3.21294C23.7114 3.08029 23.6764 2.88077 23.8212 2.73075C24.4144 2.12539 24.9941 1.50318 25.6276 0.943612C25.8889 0.712521 26.2741 0.624085 26.6029 0.469849H27.2301C27.47 0.585131 27.7654 0.646721 27.9405 0.826225C28.5478 1.45001 29.3517 1.93167 29.53 2.8913L29.532 3.26137Z" fill="#C1FF72"/>
<path id="Vector_3" d="M2.92688 0.471413C3.67328 0.638283 4.17715 1.15574 4.68206 1.68214C5.25702 2.28172 5.8555 2.85707 6.43098 3.45559C7.08696 4.13992 7.20142 5.23168 6.6573 5.91389C6.33167 6.32186 5.93599 6.67403 5.55966 7.03988C5.40599 7.18938 5.22879 7.18095 5.07356 7.0204C4.91048 6.85089 4.95282 6.68297 5.09603 6.53295C5.34954 6.26974 5.59625 5.99234 5.87275 5.75282C6.51827 5.19326 6.37976 4.43681 5.93495 3.95936C5.15876 3.12975 4.36009 2.31857 3.53059 1.54212C3.03717 1.07889 2.30906 0.957284 1.77539 1.59055C1.56647 1.83806 1.33801 2.06816 1.09224 2.27856C0.600916 2.69968 0.650568 3.33505 0.90564 3.75986C1.02963 3.96069 1.1755 4.14697 1.34052 4.31521C1.76965 4.76318 2.21341 5.19746 2.64724 5.64017C2.84429 5.84073 2.86468 6.00865 2.72303 6.16657C2.56622 6.33976 2.38224 6.34924 2.17787 6.14394C1.59873 5.56174 0.995547 4.99796 0.473382 4.3668C-0.133982 3.62983 -0.19566 2.46227 0.622347 1.7611C0.853558 1.5608 1.06935 1.34311 1.26787 1.10993C1.54698 0.784617 1.90398 0.60354 2.29547 0.470886L2.92688 0.471413Z" fill="#C1FF72"/>
<path id="Vector_4" d="M6.00565 9.06496C6.53719 7.97524 7.24697 6.98334 8.10528 6.13079C7.93802 5.96076 7.7739 5.80915 7.62911 5.64017C7.54757 5.5449 7.44931 5.42277 7.44774 5.31065C7.45008 5.24555 7.46661 5.18178 7.49614 5.12383C7.52568 5.06589 7.56751 5.01519 7.61866 4.97533C7.69863 4.92532 7.8753 4.95586 7.9652 5.01639C8.12201 5.12167 8.24484 5.27959 8.38074 5.41435C8.63633 5.67018 8.63686 5.67124 8.93061 5.44857C10.1108 4.55368 11.4207 3.9362 12.8733 3.66353C15.678 3.13712 18.2392 3.72004 20.5568 5.41225C20.9049 5.66703 20.8244 5.74388 21.2028 5.35961C21.5352 5.02447 21.868 4.68967 22.2011 4.35523C22.7134 3.83935 23.3464 3.643 24.0415 3.76092C24.3316 3.8104 24.6233 3.99412 24.8606 4.18467C25.1857 4.44788 25.4617 4.76898 25.7544 5.06956C25.953 5.27433 25.975 5.50332 25.8202 5.64861C25.6655 5.79389 25.4606 5.75862 25.2688 5.56806C25.0273 5.3275 24.7754 5.0943 24.5506 4.84057C24.0326 4.25363 23.3908 4.28521 22.8514 4.73002C22.3501 5.14272 21.9335 5.65965 21.4574 6.15131C22.2555 6.98303 22.9732 7.90161 23.499 9.01811C23.6317 8.89441 23.7389 8.80018 23.8403 8.70227C24.0577 8.48697 24.2715 8.26851 24.4884 8.05216C24.6374 7.90319 24.7963 7.85739 24.9693 8.01637C25.1261 8.15902 25.1324 8.37169 24.962 8.5533C24.675 8.85966 24.387 9.16813 24.0734 9.44502C23.8455 9.64611 23.8262 9.8335 23.9234 10.112C24.2522 11.0516 24.3896 12.0207 24.4111 13.0225C24.4456 14.6364 24.121 16.1535 23.4007 17.5885C23.3176 17.7548 23.3782 17.8401 23.4864 17.948C24.1851 18.646 24.8811 19.3467 25.5746 20.0499C26.0136 20.4958 26.2797 21.0212 26.2875 21.6639C26.2917 21.8838 26.2522 22.1024 26.1714 22.3067C26.0906 22.5111 25.9702 22.6972 25.8171 22.8541C25.5364 23.1541 25.2479 23.4479 24.9458 23.7253C24.8444 23.8157 24.7152 23.8682 24.5799 23.8737C24.4848 23.8737 24.3384 23.7753 24.3091 23.6879C24.2944 23.6283 24.2929 23.5662 24.3047 23.506C24.3166 23.4457 24.3415 23.3889 24.3776 23.3394C24.6041 23.0727 24.8486 22.8221 25.1094 22.5893C25.8093 21.9687 25.7434 21.2944 25.1726 20.6564C24.4973 19.9015 23.753 19.2093 23.038 18.4907C23.0149 18.4742 22.9895 18.4611 22.9627 18.4518C22.6005 18.9092 22.2623 19.3877 21.8708 19.8162C21.4793 20.2447 21.0429 20.6121 20.6059 21.027C20.6655 21.0938 20.7245 21.1654 20.7899 21.2317C21.1647 21.6107 21.5415 21.9882 21.9163 22.3672C22.1311 22.5851 22.164 22.8088 22.0067 22.962C21.8494 23.1152 21.6377 23.0752 21.4171 22.8536C20.999 22.4324 20.5745 22.0145 20.1627 21.586C20.0388 21.457 19.9452 21.4323 19.7853 21.5334C18.6303 22.2626 17.3281 22.7227 15.9738 22.8799C13.7691 23.1431 11.6972 22.7183 9.78677 21.5639C9.5777 21.4391 9.45277 21.4328 9.2761 21.6165C8.6656 22.2545 8.03838 22.8757 7.41377 23.5C6.89108 24.0222 6.26803 24.3159 5.52686 24.1922C5.2217 24.1358 4.93471 24.0055 4.69056 23.8127C4.32468 23.5216 4.01106 23.1615 3.68229 22.822C3.53019 22.6641 3.5051 22.4782 3.66295 22.304C3.78735 22.1671 4.01211 22.1829 4.17571 22.3424C4.43706 22.5988 4.70467 22.8525 4.95138 23.1241C5.46675 23.6927 6.08562 23.61 6.62398 23.2531C6.72583 23.1854 6.82074 23.1076 6.90728 23.021C7.51883 22.4093 8.12619 21.7929 8.73669 21.1786C8.85064 21.0649 8.91963 20.968 8.75499 20.8401C7.90248 20.1826 7.21253 19.3762 6.62346 18.4776C6.60883 18.4555 6.59367 18.4339 6.5597 18.3839C6.47607 18.4586 6.40602 18.516 6.34173 18.5802C5.92358 19.0014 5.51066 19.4309 5.07944 19.8394C4.97491 19.9362 4.80242 20.0241 4.67436 20.0084C4.3827 19.9715 4.31631 19.6399 4.54473 19.403C5.01515 18.9203 5.48557 18.4386 5.96905 17.9722C6.14154 17.8064 6.17813 17.6738 6.06419 17.4516C5.53919 16.4384 5.2256 15.3277 5.14269 14.1879C5.04547 12.7666 5.12021 11.3453 5.63506 9.99249C5.70772 9.80246 5.6821 9.67348 5.53627 9.52662C4.93884 8.92599 4.33409 8.33273 3.76906 7.69947C3.11257 6.95935 2.97092 5.75704 3.86785 4.96954C4.12919 4.7395 4.36022 4.47313 4.61059 4.22888C4.81966 4.02411 4.9932 4.01253 5.1568 4.17624C5.3204 4.33995 5.30368 4.51052 5.09721 4.72371C4.85364 4.97428 4.60484 5.22063 4.35866 5.46857C3.84903 5.98181 3.73143 6.47189 4.16369 7.03672C4.70415 7.74053 5.35333 8.35537 6.00565 9.06496ZM15.2985 18.1149V18.1186C16.9189 18.1186 18.5392 18.1186 20.1595 18.1186C20.3686 18.1186 20.585 18.1438 20.7867 18.0975C21.7636 17.8727 22.4024 17.2679 22.6637 16.2914C22.9089 15.375 22.5529 14.3264 21.8525 13.7842C21.4783 13.4941 21.0685 13.2962 20.5981 13.2478C20.3968 13.2267 20.2709 13.1577 20.2803 12.9035C20.2886 12.6803 20.228 12.4529 20.1825 12.2302C19.6598 9.55819 17.0176 7.78001 14.3085 8.40012C13.0018 8.69964 11.9747 9.4208 11.2487 10.5615C11.1578 10.7052 11.0679 10.7989 10.8776 10.7863C10.6024 10.7647 10.3259 10.7647 10.0507 10.7863C8.31175 10.9484 6.85345 12.4303 6.79647 14.3448C6.7625 15.4923 7.18901 16.4746 8.05093 17.2337C8.66927 17.778 9.38744 18.1144 10.2316 18.1144C11.9199 18.113 13.6088 18.1124 15.2985 18.1128V18.1149Z" fill="#C1FF72"/>
<path id="Vector_5" d="M0.00362087 24.9397C-0.00265139 24.2711 0.217924 23.769 0.625621 23.3531C1.37777 22.5851 2.12678 21.8123 2.90088 21.0669C3.48368 20.5063 4.18722 20.3157 4.97178 20.5626C5.15313 20.6239 5.31927 20.7237 5.45892 20.8553C5.80494 21.1759 6.12953 21.5196 6.46091 21.8555C6.61406 22.0108 6.6726 22.1797 6.50691 22.3635C6.37101 22.514 6.14835 22.513 5.97168 22.345C5.70615 22.0918 5.42912 21.8455 5.19757 21.5628C4.65868 20.9058 3.87204 21.1106 3.43664 21.5244C2.62595 22.2945 1.83983 23.0925 1.06991 23.9037C0.509584 24.4938 0.547221 25.1618 1.11904 25.7377C1.32812 25.9483 1.54608 26.152 1.74627 26.372C2.24648 26.9226 2.83137 26.9032 3.40423 26.4805C3.75234 26.2241 4.0461 25.8914 4.35919 25.5856C4.62837 25.3224 4.88971 25.0528 5.15524 24.787C5.30264 24.6401 5.46362 24.5875 5.64186 24.7312C5.77776 24.8407 5.80442 25.106 5.6565 25.2545C5.0392 25.8719 4.45432 26.5336 3.77116 27.069C2.98713 27.6849 1.93078 27.6428 1.22881 26.841C1.0098 26.5915 0.763612 26.3673 0.528925 26.132C0.178724 25.7835 -0.0293085 25.3755 0.00362087 24.9397Z" fill="#C1FF72"/>
</g>
<defs>
<clipPath id="clip0_2113_5">
<rect width="29.5319" height="27.0571" fill="white" transform="translate(0 0.471436)"/>
</clipPath>
</defs>
</svg>
