<svg width="336" height="371" viewBox="0 0 336 371" fill="none" xmlns="http://www.w3.org/2000/svg">
<g filter="url(#filter0_b_230_215)">
<path d="M182.933 13.6649C263.837 20.7431 325.726 103.17 317.478 197.449C309.229 291.727 230.223 363.635 149.319 356.557" stroke="url(#paint0_radial_230_215)" stroke-opacity="0.9" stroke-width="12.6139"/>
<path d="M182.933 13.6649C263.837 20.7431 325.726 103.17 317.478 197.449C309.229 291.727 230.223 363.635 149.319 356.557" stroke="url(#paint1_radial_230_215)" stroke-opacity="0.9" stroke-width="12.6139"/>
<path d="M182.933 13.6649C263.837 20.7431 325.726 103.17 317.478 197.449C309.229 291.727 230.223 363.635 149.319 356.557" stroke="url(#paint2_radial_230_215)" stroke-opacity="0.9" stroke-width="12.6139"/>
<path d="M182.933 13.6649C263.837 20.7431 325.726 103.17 317.478 197.449C309.229 291.727 230.223 363.635 149.319 356.557" stroke="url(#paint3_radial_230_215)" stroke-opacity="0.9" stroke-width="12.6139"/>
<path d="M182.933 13.6649C263.837 20.7431 325.726 103.17 317.478 197.449C309.229 291.727 230.223 363.635 149.319 356.557" stroke="url(#paint4_radial_230_215)" stroke-opacity="0.9" stroke-width="12.6139"/>
</g>
<path d="M312.47 197.009C320.71 102.822 261.869 20.796 181.119 13.7314C100.367 6.66647 25.0319 78.7637 16.7918 172.948C8.5514 267.136 67.393 349.162 148.142 356.227C228.894 363.291 304.23 291.194 312.47 197.009Z" fill="url(#paint5_linear_230_215)"/>
<path d="M312.47 197.009C320.71 102.822 261.869 20.796 181.119 13.7314C100.367 6.66647 25.0319 78.7637 16.7918 172.948C8.5514 267.136 67.393 349.162 148.142 356.227C228.894 363.291 304.23 291.194 312.47 197.009Z" stroke="url(#paint6_radial_230_215)" stroke-width="0.450497"/>
<path d="M312.47 197.009C320.71 102.822 261.869 20.796 181.119 13.7314C100.367 6.66647 25.0319 78.7637 16.7918 172.948C8.5514 267.136 67.393 349.162 148.142 356.227C228.894 363.291 304.23 291.194 312.47 197.009Z" stroke="url(#paint7_linear_230_215)" stroke-opacity="0.05" stroke-width="0.450497"/>
<g filter="url(#filter1_iii_230_215)">
<path d="M297.78 195.214C305.195 110.462 252.247 36.5988 179.518 30.2358C106.789 23.8728 37.0397 90.4338 29.6249 175.186C22.2101 259.938 75.1579 333.801 147.887 340.164C220.617 346.527 290.365 279.966 297.78 195.214Z" fill="#0A0C0E" fill-opacity="0.1"/>
</g>
<path d="M297.331 195.175C304.73 110.604 251.898 37.0205 179.479 30.6846C107.053 24.3482 37.4721 90.6611 30.0737 175.225C22.6747 259.796 75.507 333.379 147.926 339.715C220.352 346.051 289.933 279.739 297.331 195.175Z" stroke="url(#paint8_linear_230_215)" stroke-opacity="0.15" stroke-width="0.900994"/>
<path d="M297.331 195.175C304.73 110.604 251.898 37.0205 179.479 30.6846C107.053 24.3482 37.4721 90.6611 30.0737 175.225C22.6747 259.796 75.507 333.379 147.926 339.715C220.352 346.051 289.933 279.739 297.331 195.175Z" stroke="url(#paint9_linear_230_215)" stroke-opacity="0.25" stroke-width="0.900994"/>
<path d="M207.885 289.774C207.555 289.545 207.242 289.277 206.91 289.074C204.766 287.818 202.934 285.875 201.607 283.477C198.462 277.554 195.287 271.674 192.309 265.701C190.226 261.486 189.569 256.959 191.276 252.487C191.916 250.927 192.81 249.564 193.911 248.511C195.607 246.789 197.494 245.402 199.288 243.883C200.372 242.958 201.487 243.158 202.092 244.32C202.703 245.489 202.48 246.715 201.4 247.686C199.995 248.959 198.52 250.155 197.069 251.366C193.645 254.204 192.793 258.152 195.037 262.745C198.168 269.121 201.559 275.344 205.009 281.559C205.569 282.567 206.278 283.433 207.105 284.114C207.914 284.794 208.831 285.263 209.792 285.527C210.492 285.744 211.2 285.785 211.892 285.651C212.575 285.528 213.223 285.227 213.792 284.777C215.496 283.412 217.178 282.007 218.868 280.648C221.088 278.848 221.719 276.113 221.082 272.853C220.725 271.148 220.129 269.507 219.352 268.013C217.397 264.198 215.294 260.519 213.272 256.802C212.43 255.231 212.476 253.729 213.367 253.002C214.272 252.269 215.28 252.745 216.131 254.279C218.33 258.271 220.538 262.296 222.731 266.352C224.351 269.327 224.811 272.689 225.085 276.118C225.013 276.8 224.934 277.487 224.861 278.182C223.952 280.011 223.341 282.358 222.055 283.538C218.52 286.691 215.211 290.758 210.103 290.466C209.373 290.234 208.635 290.008 207.885 289.774Z" fill="#C1FF72" fill-opacity="0.86"/>
<path d="M237.67 140.555C237.468 141.166 237.355 141.87 237.045 142.389C235.928 144.303 235.026 146.574 233.552 147.977C229.231 152.068 224.818 155.949 220.266 159.642C216.667 162.562 211.494 161.836 208.424 158.035C206.393 155.55 204.691 152.626 202.909 149.805C202.746 149.59 202.632 149.334 202.558 149.068C202.484 148.802 202.45 148.52 202.461 148.248C202.484 147.978 202.551 147.724 202.667 147.507C202.777 147.29 202.916 147.101 203.108 146.974C203.944 146.294 204.891 146.571 205.633 147.64C206.997 149.614 208.387 151.576 209.611 153.661C211.586 157.095 214.719 157.547 217.065 156.531C217.803 156.237 218.487 155.81 219.114 155.3C223.394 151.453 227.704 147.641 231.932 143.659C234.152 141.561 235.215 136.826 232.224 133.097C231.076 131.693 230.049 130.177 229.145 128.581C226.322 123.795 222.144 124.135 219.385 126.401C216.485 128.804 213.711 131.392 210.924 133.902C210.076 134.653 209.186 135.063 208.142 133.818C207.315 132.831 207.156 131.598 207.938 130.861C211.165 127.896 214.343 124.823 217.834 122.179C219.281 121.085 221.38 120.987 223.183 120.423C224.315 120.657 225.453 120.892 226.579 121.125C227.836 122.084 229.407 122.771 230.287 124.047C233.295 128.486 237.321 132.311 237.818 138.316C237.773 139.065 237.727 139.813 237.67 140.555Z" fill="#C1FF72" fill-opacity="0.86"/>
<path d="M108.862 92.9141C111.956 94.7776 114.029 98.3563 116.103 101.987C118.515 106.14 121.032 110.192 123.487 114.355C126.317 119.135 126.707 125.559 124.139 128.756C122.577 130.658 120.702 132.125 118.909 133.702C118.162 134.331 117.373 134.023 116.72 132.89C116.04 131.696 116.279 130.802 116.976 130.155C118.189 129.001 119.351 127.765 120.66 126.775C123.658 124.433 123.162 119.92 121.261 116.602C118.003 110.858 114.673 105.211 111.267 99.7525C109.27 96.5047 106.243 94.9065 103.876 97.8031C102.919 98.9206 101.882 99.9015 100.766 100.759C98.4933 102.418 98.4687 105.997 99.4125 108.706C99.8704 109.998 100.437 111.227 101.093 112.4C102.806 115.494 104.6 118.555 106.353 121.633C107.164 123.039 107.196 124.015 106.503 124.695C105.74 125.433 104.911 125.219 104.091 123.766C101.752 119.684 99.3141 115.685 97.2668 111.44C94.9422 106.51 95.1675 100.009 98.9332 97.2526C99.9743 96.4408 100.961 95.5139 101.855 94.4559C103.095 92.9865 104.615 92.3978 106.256 92.1374C107.127 92.3943 107.991 92.6507 108.862 92.9141Z" fill="#C1FF72" fill-opacity="0.86"/>
<path d="M120.264 145.951C123.046 140.43 126.554 135.712 130.64 131.945C129.903 130.733 129.195 129.647 128.571 128.477C128.213 127.824 127.788 126.982 127.798 126.334C127.811 125.959 127.893 125.61 128.035 125.317C128.183 125.031 128.379 124.782 128.612 124.634C128.971 124.444 129.759 124.843 130.164 125.319C130.851 126.131 131.394 127.197 131.983 128.162C133.12 129.986 133.12 129.986 134.487 129.073C139.88 125.387 145.85 123.418 152.558 123.609C165.932 123.889 178.921 130.345 190.672 143.188C192.401 145.128 191.975 145.487 193.961 143.621C195.72 141.995 197.478 140.37 199.256 138.752C201.984 136.244 205.311 135.792 208.916 137.297C210.421 137.927 211.889 139.364 213.068 140.777C214.692 142.734 216.005 144.988 217.431 147.135C218.372 148.605 218.392 150.015 217.561 150.721C216.712 151.414 215.67 150.96 214.752 149.596C213.595 147.861 212.369 146.166 211.294 144.38C208.758 140.248 205.42 139.7 202.537 141.754C199.874 143.652 197.641 146.281 195.096 148.682C198.931 154.639 202.242 161.043 204.469 168.45C205.181 167.843 205.77 167.401 206.322 166.923C207.507 165.871 208.669 164.79 209.842 163.724C210.668 163.004 211.491 162.913 212.303 164.073C213.048 165.123 212.987 166.429 212.047 167.334C210.472 168.865 208.876 170.401 207.183 171.714C205.942 172.671 205.773 173.798 206.128 175.613C207.351 181.752 207.548 187.868 207.126 194.098C206.381 204.207 203.825 213.341 199.278 221.467C198.75 222.407 198.994 223.025 199.46 223.85C202.452 229.221 205.434 234.637 208.399 240.096C210.28 243.568 211.231 247.322 210.787 251.481C210.632 252.895 210.269 254.259 209.7 255.449C209.129 256.658 208.349 257.668 207.452 258.459C205.761 259.981 204.05 261.435 202.258 262.766C201.652 263.187 200.948 263.321 200.237 263.162C199.757 263.017 199.099 262.175 199.029 261.559C199.005 261.168 199.059 260.764 199.168 260.397C199.29 260.038 199.467 259.709 199.691 259.443C201.083 258.084 202.544 256.841 204.058 255.727C208.113 252.762 208.322 248.329 205.93 243.425C203.088 237.659 199.895 232.218 196.839 226.686C196.747 226.555 196.629 226.428 196.488 226.331C194.366 228.724 192.332 231.286 190.049 233.437C187.78 235.576 185.316 237.271 182.809 239.241C183.044 239.741 183.276 240.286 183.542 240.796C185.068 243.737 186.602 246.659 188.127 249.607C189.009 251.305 188.961 252.767 188.023 253.51C187.087 254.227 186.061 253.658 185.175 251.934C183.484 248.654 181.779 245.399 180.135 242.104C179.625 241.106 179.197 240.816 178.309 241.213C171.973 244.052 165.189 244.951 158.539 243.864C147.889 242.094 138.755 236.27 131.002 226.225C130.145 225.132 129.564 224.893 128.63 225.741C125.359 228.689 122.036 231.49 118.736 234.325C115.995 236.677 112.999 237.488 109.82 235.553C108.508 234.706 107.335 233.456 106.404 231.877C104.978 229.503 103.821 226.782 102.564 224.175C101.991 222.951 101.982 221.776 102.804 220.958C103.454 220.327 104.456 220.79 105.086 222.032C106.092 224.026 107.124 226.016 108.04 228.074C109.926 232.389 112.732 232.865 115.402 231.552C115.917 231.292 116.391 230.969 116.839 230.58C120.056 227.809 123.256 225.01 126.5 222.222C127.101 221.709 127.486 221.223 126.831 220.187C123.385 214.835 120.75 208.846 118.603 202.459C118.539 202.304 118.482 202.143 118.357 201.789C117.928 202.108 117.571 202.343 117.249 202.627C115.08 204.509 112.933 206.432 110.727 208.22C110.192 208.635 109.355 208.887 108.78 208.577C107.487 207.888 107.374 205.744 108.559 204.692C110.986 202.527 113.404 200.387 115.89 198.351C116.782 197.623 117.014 196.884 116.621 195.365C114.768 188.418 113.903 181.279 114.104 174.393C114.327 165.894 115.302 157.758 118.207 150.73C118.615 149.753 118.548 148.962 117.94 147.911C115.448 143.562 112.938 139.284 110.608 134.859C107.939 129.717 107.752 122.753 111.974 119.588C113.188 118.642 114.262 117.444 115.42 116.402C116.378 115.512 117.14 115.682 117.818 116.817C118.516 117.961 118.401 118.911 117.446 119.854C116.309 120.949 115.156 122.004 113.989 123.078C111.58 125.27 110.883 127.863 112.624 131.679C114.82 136.456 117.541 140.915 120.264 145.951ZM159.354 213.468C167.132 215.808 174.978 218.114 182.886 220.387C183.909 220.677 184.957 221.131 185.981 221.115C190.958 221.052 194.544 218.119 196.482 212.324C198.277 206.906 197.134 199.911 193.96 195.672C192.266 193.404 190.332 191.667 188.047 190.776C187.059 190.372 186.481 189.797 186.654 188.242C186.816 186.893 186.633 185.418 186.51 183.999C185.072 167.085 172.578 153.107 159.273 153.384C152.948 153.467 147.862 156.375 144.056 162.144C143.579 162.862 143.114 163.302 142.218 162.959C140.936 162.446 139.635 162.067 138.344 161.806C130.172 160.27 122.795 166.768 121.639 177.97C120.892 184.737 122.352 191.293 125.904 197.218C128.437 201.466 131.551 204.603 135.484 205.897C143.374 208.447 151.319 210.957 159.364 213.43C159.363 213.443 159.355 213.455 159.354 213.468Z" fill="#C1FF72" fill-opacity="0.86"/>
<path d="M84.8748 231.216C85.2455 227.077 86.4927 224.33 88.566 222.433C92.3771 218.928 96.1893 215.411 100.124 212.124C103.094 209.662 106.395 209.656 109.804 212.455C110.576 213.112 111.276 213.996 111.828 215.024C113.184 217.535 114.42 220.159 115.692 222.741C116.275 223.933 116.417 225.061 115.539 225.926C114.818 226.629 113.821 226.258 113.151 224.954C112.131 222.971 111.044 221.028 110.19 218.918C108.16 214.025 104.48 213.993 102.258 215.812C98.1524 219.207 94.1503 222.825 90.2293 226.554C87.3847 229.286 87.1659 233.465 89.3667 237.956C90.1518 239.581 90.9894 241.198 91.7117 242.876C93.5305 247.068 96.0625 247.877 98.8426 246.191C100.536 245.176 102.05 243.607 103.645 242.227C105.016 241.041 106.372 239.802 107.739 238.597C108.495 237.936 109.245 237.871 109.914 239.038C110.426 239.926 110.321 241.597 109.563 242.271C106.383 245.071 103.316 248.206 99.9808 250.396C96.1499 252.932 91.6771 250.989 89.1655 244.926C88.3635 243.047 87.4172 241.265 86.5214 239.423C85.1701 236.711 84.5105 233.858 84.8748 231.216Z" fill="#C1FF72" fill-opacity="0.86"/>
<defs>
<filter id="filter0_b_230_215" x="117.234" y="-24.153" width="238.82" height="419.035" filterUnits="userSpaceOnUse" color-interpolation-filters="sRGB">
<feFlood flood-opacity="0" result="BackgroundImageFix"/>
<feGaussianBlur in="BackgroundImageFix" stdDeviation="15.7674"/>
<feComposite in2="SourceAlpha" operator="in" result="effect1_backgroundBlur_230_215"/>
<feBlend mode="normal" in="SourceGraphic" in2="effect1_backgroundBlur_230_215" result="shape"/>
</filter>
<filter id="filter1_iii_230_215" x="25.3281" y="26.2105" width="276.749" height="317.978" filterUnits="userSpaceOnUse" color-interpolation-filters="sRGB">
<feFlood flood-opacity="0" result="BackgroundImageFix"/>
<feBlend mode="normal" in="SourceGraphic" in2="BackgroundImageFix" result="shape"/>
<feColorMatrix in="SourceAlpha" type="matrix" values="0 0 0 0 0 0 0 0 0 0 0 0 0 0 0 0 0 0 127 0" result="hardAlpha"/>
<feOffset dx="3.60398" dy="-5.40597"/>
<feGaussianBlur stdDeviation="1.80199"/>
<feComposite in2="hardAlpha" operator="arithmetic" k2="-1" k3="1"/>
<feColorMatrix type="matrix" values="0 0 0 0 0.316667 0 0 0 0 0.316667 0 0 0 0 0.316667 0 0 0 0.25 0"/>
<feBlend mode="normal" in2="shape" result="effect1_innerShadow_230_215"/>
<feColorMatrix in="SourceAlpha" type="matrix" values="0 0 0 0 0 0 0 0 0 0 0 0 0 0 0 0 0 0 127 0" result="hardAlpha"/>
<feOffset dx="-3.60398" dy="5.40597"/>
<feGaussianBlur stdDeviation="1.80199"/>
<feComposite in2="hardAlpha" operator="arithmetic" k2="-1" k3="1"/>
<feColorMatrix type="matrix" values="0 0 0 0 0.270833 0 0 0 0 0.270833 0 0 0 0 0.270833 0 0 0 0.25 0"/>
<feBlend mode="normal" in2="effect1_innerShadow_230_215" result="effect2_innerShadow_230_215"/>
<feColorMatrix in="SourceAlpha" type="matrix" values="0 0 0 0 0 0 0 0 0 0 0 0 0 0 0 0 0 0 127 0" result="hardAlpha"/>
<feOffset dx="-3.60398" dy="-3.60398"/>
<feGaussianBlur stdDeviation="1.80199"/>
<feComposite in2="hardAlpha" operator="arithmetic" k2="-1" k3="1"/>
<feColorMatrix type="matrix" values="0 0 0 0 0.270833 0 0 0 0 0.270833 0 0 0 0 0.270833 0 0 0 0.25 0"/>
<feBlend mode="normal" in2="effect2_innerShadow_230_215" result="effect3_innerShadow_230_215"/>
</filter>
<radialGradient id="paint0_radial_230_215" cx="0" cy="0" r="1" gradientUnits="userSpaceOnUse" gradientTransform="translate(340.145 127.735) rotate(131.521) scale(69.0847 30.8113)">
<stop stop-color="#0A0505"/>
<stop offset="0.302247" stop-color="#721A31"/>
<stop offset="0.989583" stop-color="#721A31" stop-opacity="0"/>
</radialGradient>
<radialGradient id="paint1_radial_230_215" cx="0" cy="0" r="1" gradientUnits="userSpaceOnUse" gradientTransform="translate(362.124 279.378) rotate(-132.954) scale(172.964 77.1406)">
<stop stop-color="#FF7070"/>
<stop offset="1" stop-color="#FF7070" stop-opacity="0"/>
</radialGradient>
<radialGradient id="paint2_radial_230_215" cx="0" cy="0" r="1" gradientUnits="userSpaceOnUse" gradientTransform="translate(280.595 353.883) rotate(-89.7802) scale(86.4298 38.5471)">
<stop stop-color="#FF7070"/>
<stop offset="1" stop-color="#FF7070" stop-opacity="0"/>
</radialGradient>
<radialGradient id="paint3_radial_230_215" cx="0" cy="0" r="1" gradientUnits="userSpaceOnUse" gradientTransform="translate(366.553 263.197) rotate(-138.444) scale(131.506 113.407)">
<stop offset="0.00401228" stop-color="#311288"/>
<stop offset="0.317708" stop-color="#6EF2E6"/>
<stop offset="0.713542" stop-color="#F3F34E"/>
<stop offset="1" stop-color="#CCFFFA" stop-opacity="0"/>
</radialGradient>
<radialGradient id="paint4_radial_230_215" cx="0" cy="0" r="1" gradientUnits="userSpaceOnUse" gradientTransform="translate(240.865 191.65) rotate(-79.1304) scale(161.401 71.9835)">
<stop stop-color="#767676"/>
<stop offset="1" stop-color="white" stop-opacity="0"/>
</radialGradient>
<linearGradient id="paint5_linear_230_215" x1="313.167" y1="251.015" x2="-65.861" y2="121.071" gradientUnits="userSpaceOnUse">
<stop stop-color="#010101" stop-opacity="0"/>
<stop stop-opacity="0.9"/>
<stop offset="0.459707" stop-color="#363636" stop-opacity="0.971584"/>
<stop offset="0.827067" stop-color="#0A0A0A" stop-opacity="0.995031"/>
<stop offset="1" stop-color="#010101"/>
<stop offset="1" stop-color="white" stop-opacity="0"/>
</linearGradient>
<radialGradient id="paint6_radial_230_215" cx="0" cy="0" r="1" gradientUnits="userSpaceOnUse" gradientTransform="translate(-40.9237 69.0897) rotate(30.9442) scale(222.935 192.252)">
<stop stop-color="#343434"/>
<stop offset="1" stop-color="#A4A4A4" stop-opacity="0"/>
</radialGradient>
<linearGradient id="paint7_linear_230_215" x1="147.889" y1="183.514" x2="487.819" y2="65.0404" gradientUnits="userSpaceOnUse">
<stop stop-color="#3D3F3E"/>
<stop offset="1" stop-color="#606261"/>
</linearGradient>
<linearGradient id="paint8_linear_230_215" x1="-117.088" y1="323.308" x2="251.186" y2="242.726" gradientUnits="userSpaceOnUse">
<stop stop-color="#58CBC2" stop-opacity="0.25"/>
<stop offset="1" stop-color="white" stop-opacity="0"/>
</linearGradient>
<linearGradient id="paint9_linear_230_215" x1="382.516" y1="163.374" x2="149.779" y2="206.085" gradientUnits="userSpaceOnUse">
<stop stop-color="#3D3F3B"/>
<stop offset="1" stop-color="#EBEBEB" stop-opacity="0.33"/>
</linearGradient>
</defs>
</svg>
