<svg width="30" height="21" viewBox="0 0 30 21" fill="none" xmlns="http://www.w3.org/2000/svg">
<path d="M13.5346 17.1736C13.6475 17.1737 13.7593 17.1949 13.8636 17.2359C13.9678 17.2769 14.0625 17.3369 14.1422 17.4125C14.222 17.4881 14.2852 17.5779 14.3282 17.6766C14.3713 17.7753 14.3934 17.8811 14.3932 17.9878C14.393 18.0946 14.3706 18.2003 14.3273 18.2989C14.2839 18.3975 14.2205 18.487 14.1405 18.5624C14.0606 18.6378 13.9657 18.6976 13.8613 18.7383C13.7569 18.779 13.6451 18.7999 13.5322 18.7998C13.3042 18.7995 13.0856 18.7135 12.9246 18.5608C12.7636 18.4081 12.6733 18.2012 12.6736 17.9855C12.6739 17.7699 12.7648 17.5632 12.9263 17.4109C13.0878 17.2586 13.3066 17.1733 13.5346 17.1736ZM27.0173 12.1458C26.9044 12.1457 26.7926 12.1246 26.6883 12.0836C26.584 12.0427 26.4893 11.9828 26.4095 11.9072C26.3297 11.8316 26.2665 11.742 26.2233 11.6433C26.1802 11.5446 26.158 11.4389 26.1581 11.3321C26.1582 11.2253 26.1805 11.1196 26.2238 11.021C26.2671 10.9223 26.3305 10.8327 26.4104 10.7573C26.4903 10.6818 26.5851 10.622 26.6894 10.5812C26.7938 10.5404 26.9056 10.5195 27.0185 10.5196C27.2465 10.5197 27.4652 10.6055 27.6263 10.7581C27.7874 10.9107 27.8778 11.1176 27.8777 11.3332C27.8775 11.5489 27.7868 11.7556 27.6254 11.908C27.4641 12.0604 27.2453 12.1459 27.0173 12.1458ZM27.0173 8.81933C26.3123 8.81994 25.6364 9.08506 25.1379 9.55648C24.6394 10.0279 24.3591 10.6671 24.3584 11.3338C24.3584 11.6033 24.4061 11.8716 24.4991 12.133L15.7165 16.5548C15.473 16.2204 15.1471 15.947 14.767 15.7582C14.3869 15.5694 13.964 15.4709 13.5346 15.471C12.5207 15.471 11.5974 16.0204 11.1497 16.8775L3.25999 12.9427C2.42589 12.5286 1.80214 11.2309 1.86819 10.0488C1.90243 9.43234 2.12747 8.9535 2.47114 8.76844C2.68884 8.65278 2.95057 8.66203 3.22941 8.79967L3.28078 8.82627C5.37216 9.86722 12.2138 13.2758 12.5024 13.4018C12.9464 13.5973 13.1934 13.676 13.9517 13.3359L28.0948 6.38003C28.3027 6.306 28.5448 6.11747 28.5448 5.83179C28.5448 5.43623 28.1119 5.28008 28.1107 5.28008C27.3059 4.91575 26.0694 4.36867 24.8635 3.83431C22.2854 2.69273 19.3636 1.39964 18.0806 0.763496C16.9726 0.21526 16.081 0.677907 15.922 0.770436L15.6138 0.915013C9.83865 3.61571 2.10912 7.23592 1.66883 7.48922C0.882427 7.94262 0.39444 8.84593 0.330842 9.96669C0.233 11.7444 1.19063 13.5985 2.56164 14.2774L10.9051 18.3464C10.997 18.9441 11.3133 19.4906 11.7961 19.886C12.2789 20.2814 12.896 20.4993 13.5346 20.5C14.2322 20.4989 14.9014 20.2389 15.3984 19.7761C15.8953 19.3132 16.1804 18.6844 16.1923 18.0248L25.3821 13.3139C25.8468 13.6586 26.4253 13.8471 27.0173 13.8471C27.7223 13.8465 28.3982 13.5814 28.8967 13.11C29.3952 12.6386 29.6755 11.9994 29.6761 11.3327C29.6755 10.666 29.3952 10.0267 28.8967 9.55532C28.3982 9.0839 27.7223 8.81878 27.0173 8.81817" fill="#C8C1C1"/>
</svg>
