<svg width="25" height="21" viewBox="0 0 25 21" fill="none" xmlns="http://www.w3.org/2000/svg">
<path d="M1.79535 9.22047L16.0913 3.33028C17.5025 2.71672 22.2883 0.753319 22.2883 0.753319C22.2883 0.753319 24.4971 -0.105668 24.3131 1.98044C24.2517 2.83943 23.7609 5.84588 23.27 9.09776L21.7361 18.7307C21.7361 18.7307 21.6134 20.1419 20.5704 20.3873C19.5273 20.6327 17.8093 19.5283 17.5025 19.2829C17.2571 19.0988 12.9008 16.3378 11.3056 14.988C10.8761 14.6198 10.3852 13.8835 11.3669 13.0246C13.5757 10.9998 16.2141 8.4842 17.8093 6.88894C18.5456 6.15266 19.2819 4.43469 16.2141 6.5208L7.56284 12.3496C7.56284 12.3496 6.58114 12.9632 4.74045 12.411C2.89977 11.8588 0.752298 11.1225 0.752298 11.1225C0.752298 11.1225 -0.72025 10.2022 1.79535 9.22047Z" fill="#C8C1C1"/>
</svg>
