<svg width="15" height="15" viewBox="0 0 15 15" fill="none" xmlns="http://www.w3.org/2000/svg">
<path d="M7.33321 13.3337C4.11146 13.3337 1.49988 10.7221 1.49988 7.50033C1.49988 4.27858 4.11146 1.66699 7.33321 1.66699C10.555 1.66699 13.1665 4.27858 13.1665 7.50033C13.1665 10.7221 10.555 13.3337 7.33321 13.3337ZM7.33321 12.167C8.57089 12.167 9.75787 11.6753 10.633 10.8002C11.5082 9.92499 11.9999 8.738 11.9999 7.50033C11.9999 6.26265 11.5082 5.07566 10.633 4.20049C9.75787 3.32532 8.57089 2.83366 7.33321 2.83366C6.09553 2.83366 4.90855 3.32532 4.03338 4.20049C3.15821 5.07566 2.66654 6.26265 2.66654 7.50033C2.66654 8.738 3.15821 9.92499 4.03338 10.8002C4.90855 11.6753 6.09553 12.167 7.33321 12.167ZM6.74988 4.58366H7.91654V5.75033H6.74988V4.58366ZM6.74988 6.91699H7.91654V10.417H6.74988V6.91699Z" fill="#7D7D7D"/>
</svg>
